<?xml version="1.0" encoding="UTF-8"?>
<!--Generator: Apple Native CoreSVG 149-->
<!DOCTYPE svg
PUBLIC "-//W3C//DTD SVG 1.1//EN"
       "http://www.w3.org/Graphics/SVG/1.1/DTD/svg11.dtd">
<svg version="1.1" xmlns="http://www.w3.org/2000/svg" xmlns:xlink="http://www.w3.org/1999/xlink" width="3300" height="2200">
 <!--glyph: "uni100EF5.medium", point size: 100.0, font version: "17.0d9e1", template writer version: "59"-->
 <g id="Notes">
  <rect height="2200" id="artboard" style="fill:white;opacity:1" width="3300" x="0" y="0"/>
  <line style="fill:none;stroke:black;opacity:1;stroke-width:0.5;" x1="263" x2="3036" y1="292" y2="292"/>
  <text style="stroke:none;fill:black;font-family:sans-serif;font-size:13;font-weight:bold;" transform="matrix(1 0 0 1 263 322)">Weight/Scale Variations</text>
  <text style="stroke:none;fill:black;font-family:sans-serif;font-size:13;text-anchor:middle;" transform="matrix(1 0 0 1 559.711 322)">Ultralight</text>
  <text style="stroke:none;fill:black;font-family:sans-serif;font-size:13;text-anchor:middle;" transform="matrix(1 0 0 1 856.422 322)">Thin</text>
  <text style="stroke:none;fill:black;font-family:sans-serif;font-size:13;text-anchor:middle;" transform="matrix(1 0 0 1 1153.13 322)">Light</text>
  <text style="stroke:none;fill:black;font-family:sans-serif;font-size:13;text-anchor:middle;" transform="matrix(1 0 0 1 1449.84 322)">Regular</text>
  <text style="stroke:none;fill:black;font-family:sans-serif;font-size:13;text-anchor:middle;" transform="matrix(1 0 0 1 1746.56 322)">Medium</text>
  <text style="stroke:none;fill:black;font-family:sans-serif;font-size:13;text-anchor:middle;" transform="matrix(1 0 0 1 2043.27 322)">Semibold</text>
  <text style="stroke:none;fill:black;font-family:sans-serif;font-size:13;text-anchor:middle;" transform="matrix(1 0 0 1 2339.98 322)">Bold</text>
  <text style="stroke:none;fill:black;font-family:sans-serif;font-size:13;text-anchor:middle;" transform="matrix(1 0 0 1 2636.69 322)">Heavy</text>
  <text style="stroke:none;fill:black;font-family:sans-serif;font-size:13;text-anchor:middle;" transform="matrix(1 0 0 1 2933.4 322)">Black</text>
  <line style="fill:none;stroke:black;opacity:1;stroke-width:0.5;" x1="263" x2="3036" y1="1903" y2="1903"/>
  <g transform="matrix(1 0 0 1 263 1933)">
   <path d="M9.24805 0.830078Q10.8691 0.830078 12.2949 0.214844Q13.7207-0.400391 14.8096-1.49414Q15.8984-2.58789 16.5186-4.01367Q17.1387-5.43945 17.1387-7.05078Q17.1387-8.66211 16.5186-10.0879Q15.8984-11.5137 14.8047-12.6074Q13.7109-13.7012 12.2852-14.3164Q10.8594-14.9316 9.23828-14.9316Q7.62695-14.9316 6.20117-14.3164Q4.77539-13.7012 3.69141-12.6074Q2.60742-11.5137 1.9873-10.0879Q1.36719-8.66211 1.36719-7.05078Q1.36719-5.43945 1.9873-4.01367Q2.60742-2.58789 3.69629-1.49414Q4.78516-0.400391 6.21094 0.214844Q7.63672 0.830078 9.24805 0.830078ZM9.24805-0.654297Q7.91992-0.654297 6.7627-1.14746Q5.60547-1.64062 4.73145-2.51953Q3.85742-3.39844 3.36426-4.56055Q2.87109-5.72266 2.87109-7.05078Q2.87109-8.37891 3.35938-9.54102Q3.84766-10.7031 4.72168-11.582Q5.5957-12.4609 6.75293-12.9541Q7.91016-13.4473 9.23828-13.4473Q10.5762-13.4473 11.7334-12.9541Q12.8906-12.4609 13.7695-11.582Q14.6484-10.7031 15.1465-9.54102Q15.6445-8.37891 15.6445-7.05078Q15.6445-5.72266 15.1514-4.56055Q14.6582-3.39844 13.7842-2.51953Q12.9102-1.64062 11.748-1.14746Q10.5859-0.654297 9.24805-0.654297ZM5.83984-7.04102Q5.83984-6.71875 6.04492-6.51855Q6.25-6.31836 6.5918-6.31836L8.50586-6.31836L8.50586-4.39453Q8.50586-4.0625 8.70605-3.85742Q8.90625-3.65234 9.22852-3.65234Q9.56055-3.65234 9.76562-3.85742Q9.9707-4.0625 9.9707-4.39453L9.9707-6.31836L11.8945-6.31836Q12.2266-6.31836 12.4316-6.51855Q12.6367-6.71875 12.6367-7.04102Q12.6367-7.37305 12.4316-7.57812Q12.2266-7.7832 11.8945-7.7832L9.9707-7.7832L9.9707-9.69727Q9.9707-10.0391 9.76562-10.2441Q9.56055-10.4492 9.22852-10.4492Q8.90625-10.4492 8.70605-10.2441Q8.50586-10.0391 8.50586-9.69727L8.50586-7.7832L6.5918-7.7832Q6.25-7.7832 6.04492-7.57812Q5.83984-7.37305 5.83984-7.04102Z"/>
  </g>
  <g transform="matrix(1 0 0 1 281.867 1933)">
   <path d="M11.709 2.91016Q13.75 2.91016 15.5518 2.12891Q17.3535 1.34766 18.7305-0.0292969Q20.1074-1.40625 20.8887-3.20801Q21.6699-5.00977 21.6699-7.05078Q21.6699-9.0918 20.8887-10.8936Q20.1074-12.6953 18.7305-14.0723Q17.3535-15.4492 15.5469-16.2305Q13.7402-17.0117 11.6992-17.0117Q9.6582-17.0117 7.85645-16.2305Q6.05469-15.4492 4.68262-14.0723Q3.31055-12.6953 2.5293-10.8936Q1.74805-9.0918 1.74805-7.05078Q1.74805-5.00977 2.5293-3.20801Q3.31055-1.40625 4.6875-0.0292969Q6.06445 1.34766 7.86621 2.12891Q9.66797 2.91016 11.709 2.91016ZM11.709 1.25Q9.98047 1.25 8.47656 0.605469Q6.97266-0.0390625 5.83496-1.17676Q4.69727-2.31445 4.05762-3.81836Q3.41797-5.32227 3.41797-7.05078Q3.41797-8.7793 4.05762-10.2832Q4.69727-11.7871 5.83008-12.9297Q6.96289-14.0723 8.4668-14.7119Q9.9707-15.3516 11.6992-15.3516Q13.4277-15.3516 14.9316-14.7119Q16.4355-14.0723 17.5781-12.9297Q18.7207-11.7871 19.3652-10.2832Q20.0098-8.7793 20.0098-7.05078Q20.0098-5.32227 19.3701-3.81836Q18.7305-2.31445 17.5928-1.17676Q16.4551-0.0390625 14.9463 0.605469Q13.4375 1.25 11.709 1.25ZM7.39258-7.04102Q7.39258-6.68945 7.62695-6.46484Q7.86133-6.24023 8.23242-6.24023L10.8789-6.24023L10.8789-3.57422Q10.8789-3.21289 11.1035-2.9834Q11.3281-2.75391 11.6797-2.75391Q12.0508-2.75391 12.2852-2.9834Q12.5195-3.21289 12.5195-3.57422L12.5195-6.24023L15.1758-6.24023Q15.5371-6.24023 15.7715-6.46484Q16.0059-6.68945 16.0059-7.04102Q16.0059-7.41211 15.7715-7.6416Q15.5371-7.87109 15.1758-7.87109L12.5195-7.87109L12.5195-10.5176Q12.5195-10.8984 12.2852-11.1279Q12.0508-11.3574 11.6797-11.3574Q11.3281-11.3574 11.1035-11.1279Q10.8789-10.8984 10.8789-10.5176L10.8789-7.87109L8.23242-7.87109Q7.85156-7.87109 7.62207-7.6416Q7.39258-7.41211 7.39258-7.04102Z"/>
  </g>
  <g transform="matrix(1 0 0 1 305.646 1933)">
   <path d="M14.9707 5.66406Q17.0605 5.66406 18.96 5.01465Q20.8594 4.36523 22.4512 3.19336Q24.043 2.02148 25.2197 0.429688Q26.3965-1.16211 27.0459-3.06641Q27.6953-4.9707 27.6953-7.05078Q27.6953-9.14062 27.0459-11.04Q26.3965-12.9395 25.2197-14.5312Q24.043-16.123 22.4512-17.2998Q20.8594-18.4766 18.9551-19.126Q17.0508-19.7754 14.9609-19.7754Q12.8711-19.7754 10.9717-19.126Q9.07227-18.4766 7.48535-17.2998Q5.89844-16.123 4.72168-14.5312Q3.54492-12.9395 2.90039-11.04Q2.25586-9.14062 2.25586-7.05078Q2.25586-4.9707 2.90527-3.06641Q3.55469-1.16211 4.72656 0.429688Q5.89844 2.02148 7.49023 3.19336Q9.08203 4.36523 10.9814 5.01465Q12.8809 5.66406 14.9707 5.66406ZM14.9707 3.84766Q13.1641 3.84766 11.5283 3.2959Q9.89258 2.74414 8.53516 1.74805Q7.17773 0.751953 6.17676-0.610352Q5.17578-1.97266 4.62891-3.6084Q4.08203-5.24414 4.08203-7.05078Q4.08203-8.86719 4.62891-10.5029Q5.17578-12.1387 6.17188-13.501Q7.16797-14.8633 8.52539-15.8594Q9.88281-16.8555 11.5186-17.4023Q13.1543-17.9492 14.9609-17.9492Q16.7773-17.9492 18.4131-17.4023Q20.0488-16.8555 21.4111-15.8594Q22.7734-14.8633 23.7695-13.501Q24.7656-12.1387 25.3174-10.5029Q25.8691-8.86719 25.8691-7.05078Q25.8789-5.24414 25.332-3.6084Q24.7852-1.97266 23.7842-0.610352Q22.7832 0.751953 21.4209 1.74805Q20.0586 2.74414 18.4229 3.2959Q16.7871 3.84766 14.9707 3.84766ZM9.45312-7.04102Q9.45312-6.66016 9.71191-6.41113Q9.9707-6.16211 10.3711-6.16211L14.0625-6.16211L14.0625-2.46094Q14.0625-2.06055 14.3115-1.80664Q14.5605-1.55273 14.9414-1.55273Q15.3516-1.55273 15.6055-1.80664Q15.8594-2.06055 15.8594-2.46094L15.8594-6.16211L19.5605-6.16211Q19.9609-6.16211 20.2148-6.41113Q20.4688-6.66016 20.4688-7.04102Q20.4688-7.45117 20.2148-7.70508Q19.9609-7.95898 19.5605-7.95898L15.8594-7.95898L15.8594-11.6504Q15.8594-12.0605 15.6055-12.3145Q15.3516-12.5684 14.9414-12.5684Q14.5605-12.5684 14.3115-12.3096Q14.0625-12.0508 14.0625-11.6504L14.0625-7.95898L10.3711-7.95898Q9.96094-7.95898 9.70703-7.70508Q9.45312-7.45117 9.45312-7.04102Z"/>
  </g>
  <text style="stroke:none;fill:black;font-family:sans-serif;font-size:13;font-weight:bold;" transform="matrix(1 0 0 1 263 1953)">Design Variations</text>
  <text style="stroke:none;fill:black;font-family:sans-serif;font-size:13;" transform="matrix(1 0 0 1 263 1971)">Symbols are supported in up to nine weights and three scales.</text>
  <text style="stroke:none;fill:black;font-family:sans-serif;font-size:13;" transform="matrix(1 0 0 1 263 1989)">For optimal layout with text and other symbols, vertically align</text>
  <text style="stroke:none;fill:black;font-family:sans-serif;font-size:13;" transform="matrix(1 0 0 1 263 2007)">symbols with the adjacent text.</text>
  <line style="fill:none;stroke:#00AEEF;stroke-width:0.5;opacity:1.0;" x1="776" x2="776" y1="1919" y2="1933"/>
  <g transform="matrix(1 0 0 1 776 1933)">
   <path d="M3.31055 0.15625Q3.70117 0.15625 3.91602-0.00976562Q4.13086-0.175781 4.26758-0.585938L5.52734-4.0332L11.2891-4.0332L12.5488-0.585938Q12.6855-0.175781 12.9004-0.00976562Q13.1152 0.15625 13.4961 0.15625Q13.8867 0.15625 14.1162-0.0585938Q14.3457-0.273438 14.3457-0.644531Q14.3457-0.869141 14.2383-1.17188L9.6582-13.3691Q9.48242-13.8184 9.17969-14.043Q8.87695-14.2676 8.4082-14.2676Q7.5-14.2676 7.17773-13.3789L2.59766-1.16211Q2.49023-0.859375 2.49023-0.634766Q2.49023-0.263672 2.70996-0.0537109Q2.92969 0.15625 3.31055 0.15625ZM6.00586-5.51758L8.37891-12.0898L8.42773-12.0898L10.8008-5.51758Z"/>
  </g>
  <line style="fill:none;stroke:#00AEEF;stroke-width:0.5;opacity:1.0;" x1="793.197" x2="793.197" y1="1919" y2="1933"/>
  <text style="stroke:none;fill:black;font-family:sans-serif;font-size:13;font-weight:bold;" transform="matrix(1 0 0 1 776 1953)">Margins</text>
  <text style="stroke:none;fill:black;font-family:sans-serif;font-size:13;" transform="matrix(1 0 0 1 776 1971)">Leading and trailing margins on the left and right side of each symbol</text>
  <text style="stroke:none;fill:black;font-family:sans-serif;font-size:13;" transform="matrix(1 0 0 1 776 1989)">can be adjusted by modifying the x-location of the margin guidelines.</text>
  <text style="stroke:none;fill:black;font-family:sans-serif;font-size:13;" transform="matrix(1 0 0 1 776 2007)">Modifications are automatically applied proportionally to all</text>
  <text style="stroke:none;fill:black;font-family:sans-serif;font-size:13;" transform="matrix(1 0 0 1 776 2025)">scales and weights.</text>
  <g transform="matrix(1 0 0 1 1289 1933)">
   <path d="M2.8418 1.86523L4.54102 3.57422Q5.18555 4.22852 5.90332 4.17969Q6.62109 4.13086 7.31445 3.35938L18.0078-8.42773L17.041-9.4043L6.42578 2.27539Q6.16211 2.57812 5.89355 2.61719Q5.625 2.65625 5.27344 2.30469L4.10156 1.14258Q3.75 0.791016 3.79395 0.522461Q3.83789 0.253906 4.14062-0.0195312L15.6152-10.8203L14.6387-11.7871L3.04688-0.898438Q2.30469-0.214844 2.25098 0.498047Q2.19727 1.21094 2.8418 1.86523ZM9.25781-16.3281Q8.94531-16.0254 8.90625-15.6348Q8.86719-15.2441 9.04297-14.9512Q9.21875-14.6777 9.55566-14.541Q9.89258-14.4043 10.3809-14.5215Q11.4746-14.7754 12.5977-14.7314Q13.7207-14.6875 14.7949-13.9844L14.209-12.5293Q13.9551-11.9043 14.0674-11.4404Q14.1797-10.9766 14.5801-10.5664L16.875-8.25195Q17.2363-7.88086 17.5781-7.82227Q17.9199-7.76367 18.3398-7.8418L19.4043-8.03711L20.0684-7.36328L20.0293-6.80664Q20-6.43555 20.1221-6.12305Q20.2441-5.81055 20.6055-5.44922L21.3672-4.70703Q21.7285-4.3457 22.1533-4.33105Q22.5781-4.31641 22.9297-4.66797L25.8398-7.58789Q26.1914-7.93945 26.1816-8.35449Q26.1719-8.76953 25.8105-9.13086L25.0391-9.89258Q24.6875-10.2539 24.3799-10.3857Q24.0723-10.5176 23.7109-10.4883L23.1348-10.4395L22.4902-11.0742L22.7344-12.1973Q22.832-12.6172 22.6953-12.9834Q22.5586-13.3496 22.1191-13.7891L19.9219-15.9766Q18.6719-17.2168 17.2607-17.8369Q15.8496-18.457 14.4189-18.4814Q12.9883-18.5059 11.665-17.959Q10.3418-17.4121 9.25781-16.3281ZM10.752-15.957Q11.6602-16.6211 12.7002-16.9043Q13.7402-17.1875 14.8047-17.085Q15.8691-16.9824 16.8701-16.5137Q17.8711-16.0449 18.7012-15.2051L21.1328-12.793Q21.3086-12.6172 21.3525-12.4512Q21.3965-12.2852 21.3379-12.0312L21.0156-10.5469L22.5195-9.0625L23.5059-9.12109Q23.6914-9.13086 23.7891-9.09668Q23.8867-9.0625 24.0332-8.91602L24.6094-8.33984L22.168-5.89844L21.5918-6.47461Q21.4453-6.62109 21.4062-6.71875Q21.3672-6.81641 21.377-7.01172L21.4453-7.98828L19.9512-9.47266L18.4277-9.21875Q18.1836-9.16992 18.042-9.2041Q17.9004-9.23828 17.7148-9.41406L15.7129-11.416Q15.5176-11.5918 15.4932-11.7529Q15.4688-11.9141 15.5859-12.1875L16.4648-14.2773Q15.293-15.3711 13.8281-15.791Q12.3633-16.2109 10.8398-15.7617Q10.7227-15.7324 10.6885-15.8057Q10.6543-15.8789 10.752-15.957Z"/>
  </g>
  <text style="stroke:none;fill:black;font-family:sans-serif;font-size:13;font-weight:bold;" transform="matrix(1 0 0 1 1289 1953)">Exporting</text>
  <text style="stroke:none;fill:black;font-family:sans-serif;font-size:13;" transform="matrix(1 0 0 1 1289 1971)">Symbols should be outlined when exporting to ensure the</text>
  <text style="stroke:none;fill:black;font-family:sans-serif;font-size:13;" transform="matrix(1 0 0 1 1289 1989)">design is preserved when submitting to Xcode.</text>
  <text id="template-version" style="stroke:none;fill:black;font-family:sans-serif;font-size:13;text-anchor:end;" transform="matrix(1 0 0 1 3036 1933)">Template v.2.0</text>
  <text style="stroke:none;fill:black;font-family:sans-serif;font-size:13;text-anchor:end;" transform="matrix(1 0 0 1 3036 1951)">Requires Xcode 13 or greater</text>
  <text id="descriptive-name" style="stroke:none;fill:black;font-family:sans-serif;font-size:13;text-anchor:end;" transform="matrix(1 0 0 1 3036 1969)">Generated from rectangle.portrait.and.arrow.right</text>
  <text style="stroke:none;fill:black;font-family:sans-serif;font-size:13;text-anchor:end;" transform="matrix(1 0 0 1 3036 1987)">Typeset at 100 points</text>
  <text style="stroke:none;fill:black;font-family:sans-serif;font-size:13;" transform="matrix(1 0 0 1 263 726)">Small</text>
  <text style="stroke:none;fill:black;font-family:sans-serif;font-size:13;" transform="matrix(1 0 0 1 263 1156)">Medium</text>
  <text style="stroke:none;fill:black;font-family:sans-serif;font-size:13;" transform="matrix(1 0 0 1 263 1586)">Large</text>
 </g>
 <g id="Guides">
  <g id="H-reference" style="fill:#27AAE1;stroke:none;" transform="matrix(1 0 0 1 339 696)">
   <path d="M0.976562 0L3.66211 0L29.3457-67.1387L30.0293-67.1387L30.0293-70.459L28.125-70.459ZM11.6699-24.4629L46.9727-24.4629L46.2402-26.709L12.4512-26.709ZM55.127 0L57.7637 0L30.6152-70.459L29.4434-70.459L29.4434-67.1387Z"/>
  </g>
  <line id="Baseline-S" style="fill:none;stroke:#27AAE1;opacity:1;stroke-width:0.5;" x1="263" x2="3036" y1="696" y2="696"/>
  <line id="Capline-S" style="fill:none;stroke:#27AAE1;opacity:1;stroke-width:0.5;" x1="263" x2="3036" y1="625.541" y2="625.541"/>
  <g id="H-reference" style="fill:#27AAE1;stroke:none;" transform="matrix(1 0 0 1 339 1126)">
   <path d="M0.976562 0L3.66211 0L29.3457-67.1387L30.0293-67.1387L30.0293-70.459L28.125-70.459ZM11.6699-24.4629L46.9727-24.4629L46.2402-26.709L12.4512-26.709ZM55.127 0L57.7637 0L30.6152-70.459L29.4434-70.459L29.4434-67.1387Z"/>
  </g>
  <line id="Baseline-M" style="fill:none;stroke:#27AAE1;opacity:1;stroke-width:0.5;" x1="263" x2="3036" y1="1126" y2="1126"/>
  <line id="Capline-M" style="fill:none;stroke:#27AAE1;opacity:1;stroke-width:0.5;" x1="263" x2="3036" y1="1055.54" y2="1055.54"/>
  <g id="H-reference" style="fill:#27AAE1;stroke:none;" transform="matrix(1 0 0 1 339 1556)">
   <path d="M0.976562 0L3.66211 0L29.3457-67.1387L30.0293-67.1387L30.0293-70.459L28.125-70.459ZM11.6699-24.4629L46.9727-24.4629L46.2402-26.709L12.4512-26.709ZM55.127 0L57.7637 0L30.6152-70.459L29.4434-70.459L29.4434-67.1387Z"/>
  </g>
  <line id="Baseline-L" style="fill:none;stroke:#27AAE1;opacity:1;stroke-width:0.5;" x1="263" x2="3036" y1="1556" y2="1556"/>
  <line id="Capline-L" style="fill:none;stroke:#27AAE1;opacity:1;stroke-width:0.5;" x1="263" x2="3036" y1="1485.54" y2="1485.54"/>
  <line id="left-margin" style="fill:none;stroke:#00AEEF;stroke-width:0.5;opacity:1.0;" x1="1380.73" x2="1380.73" y1="1030.79" y2="1150.12"/>
  <line id="right-margin" style="fill:none;stroke:#00AEEF;stroke-width:0.5;opacity:1.0;" x1="1518.96" x2="1518.96" y1="1030.79" y2="1150.12"/>
 </g>
 <g id="Symbols">
  <g id="Black-L" transform="matrix(1 0 0 1 2837.31 1556)">
   <path d="M39.8926 35.2539L107.617 35.2539Q119.043 35.2539 125.244 29.0039Q131.445 22.7539 131.445 11.3281L131.445-13.916L111.23-13.916L111.23 8.59375Q111.23 11.7676 109.717 13.3789Q108.203 14.9902 104.785 14.9902L42.7246 14.9902Q39.3066 14.9902 37.8174 13.3789Q36.3281 11.7676 36.3281 8.59375L36.3281-79.0039Q36.3281-82.1777 37.8174-83.7891Q39.3066-85.4004 42.7246-85.4004L104.785-85.4004Q108.203-85.4004 109.717-83.7891Q111.23-82.1777 111.23-79.0039L111.23-56.1523L131.445-56.1523L131.445-81.7383Q131.445-93.1641 125.244-99.4141Q119.043-105.664 107.617-105.664L39.8926-105.664Q28.4668-105.664 22.2656-99.4141Q16.0645-93.1641 16.0645-81.7383L16.0645 11.3281Q16.0645 22.7539 22.2656 29.0039Q28.4668 35.2539 39.8926 35.2539ZM87.0117-26.4648L145.85-26.4648L155.029-27.2461L150.146-24.7559L143.408-18.457Q140.967-16.1621 140.967-12.793Q140.967-9.91211 142.969-7.61719Q144.971-5.32227 148.145-5.32227Q149.805-5.32227 151.05-5.9082Q152.295-6.49414 153.369-7.61719L172.998-28.125Q174.707-29.8828 175.415-31.665Q176.123-33.4473 176.123-35.2539Q176.123-37.0605 175.415-38.8672Q174.707-40.6738 172.998-42.4316L153.369-62.9395Q152.295-64.0625 151.05-64.6484Q149.805-65.2344 148.145-65.2344Q144.971-65.2344 142.969-62.9395Q140.967-60.6445 140.967-57.7637Q140.967-54.3945 143.408-52.0508L150.146-45.8008L155.029-43.3105L145.85-44.0918L87.0117-44.0918Q83.5449-44.0918 80.9326-41.5527Q78.3203-39.0137 78.3203-35.2539Q78.3203-31.543 80.9326-29.0039Q83.5449-26.4648 87.0117-26.4648Z"/>
  </g>
  <g id="Heavy-L" transform="matrix(1 0 0 1 2542.45 1556)">
   <path d="M38.7207 34.5215L106.299 34.5215Q117.236 34.5215 123.096 28.6133Q128.955 22.7051 128.955 11.7188L128.955-14.5996L111.475-14.5996L111.475 9.61914Q111.475 13.2324 109.692 15.1123Q107.91 16.9922 104.053 16.9922L40.9668 16.9922Q37.1094 16.9922 35.3516 15.1123Q33.5938 13.2324 33.5938 9.61914L33.5938-80.0293Q33.5938-83.6426 35.3516-85.5225Q37.1094-87.4023 40.9668-87.4023L104.053-87.4023Q107.91-87.4023 109.692-85.5225Q111.475-83.6426 111.475-80.0293L111.475-55.5664L128.955-55.5664L128.955-82.1289Q128.955-93.1152 123.096-99.0234Q117.236-104.932 106.299-104.932L38.7207-104.932Q27.7832-104.932 21.9238-99.0234Q16.0645-93.1152 16.0645-82.1289L16.0645 11.7188Q16.0645 22.7051 21.9238 28.6133Q27.7832 34.5215 38.7207 34.5215ZM83.5449-27.5391L144.238-27.5391L153.467-28.2227L148.486-25.0977L140.771-17.8711Q138.623-15.8203 138.623-12.8418Q138.623-10.2539 140.405-8.22754Q142.188-6.20117 144.971-6.20117Q146.484-6.20117 147.583-6.73828Q148.682-7.27539 149.658-8.25195L169.678-29.1016Q171.143-30.6152 171.777-32.1533Q172.412-33.6914 172.412-35.2539Q172.412-36.8164 171.777-38.3789Q171.143-39.9414 169.678-41.4551L149.658-62.3047Q148.682-63.2812 147.583-63.8184Q146.484-64.3555 144.971-64.3555Q142.188-64.3555 140.405-62.3535Q138.623-60.3516 138.623-57.7148Q138.623-54.7363 140.771-52.6855L148.486-45.459L153.467-42.334L144.238-43.0176L83.5449-43.0176Q80.5176-43.0176 78.2227-40.7715Q75.9277-38.5254 75.9277-35.2539Q75.9277-32.0312 78.2227-29.7852Q80.5176-27.5391 83.5449-27.5391Z"/>
  </g>
  <g id="Bold-L" transform="matrix(1 0 0 1 2247.84 1556)">
   <path d="M37.4023 33.6914L104.883 33.6914Q115.283 33.6914 120.728 28.1738Q126.172 22.6562 126.172 12.207L126.172-15.3809L111.768-15.3809L111.768 10.7422Q111.768 14.8926 109.668 17.0654Q107.568 19.2383 103.223 19.2383L39.0625 19.2383Q34.7168 19.2383 32.6172 17.0654Q30.5176 14.8926 30.5176 10.7422L30.5176-81.1523Q30.5176-85.3027 32.6172-87.4756Q34.7168-89.6484 39.0625-89.6484L103.223-89.6484Q107.568-89.6484 109.668-87.4756Q111.768-85.3027 111.768-81.1523L111.768-54.8828L126.172-54.8828L126.172-82.6172Q126.172-93.0664 120.728-98.584Q115.283-104.102 104.883-104.102L37.4023-104.102Q27.002-104.102 21.5332-98.584Q16.0645-93.0664 16.0645-82.6172L16.0645 12.207Q16.0645 22.6562 21.5332 28.1738Q27.002 33.6914 37.4023 33.6914ZM79.7363-28.7598L142.48-28.7598L151.709-29.2969L146.631-25.4883L137.842-17.1875Q135.986-15.4785 135.986-12.8906Q135.986-10.6445 137.524-8.93555Q139.062-7.22656 141.455-7.22656Q142.725-7.22656 143.701-7.66602Q144.678-8.10547 145.508-8.98438L165.967-30.1758Q167.188-31.4453 167.7-32.7148Q168.213-33.9844 168.213-35.2539Q168.213-36.5723 167.7-37.8662Q167.188-39.1602 165.967-40.4297L145.508-61.6211Q144.678-62.4512 143.701-62.915Q142.725-63.3789 141.455-63.3789Q139.062-63.3789 137.524-61.6943Q135.986-60.0098 135.986-57.7148Q135.986-55.127 137.842-53.3691L146.631-45.1172L151.709-41.2598L142.48-41.8457L79.7363-41.8457Q77.1484-41.8457 75.2197-39.9414Q73.291-38.0371 73.291-35.2539Q73.291-32.5684 75.2197-30.6641Q77.1484-28.7598 79.7363-28.7598Z"/>
  </g>
  <g id="Semibold-L" transform="matrix(1 0 0 1 1952.57 1556)">
   <path d="M36.4746 33.1055L103.857 33.1055Q113.867 33.1055 119.067 27.8564Q124.268 22.6074 124.268 12.5488L124.268-15.918L111.914-15.918L111.914 11.5234Q111.914 16.0156 109.619 18.3838Q107.324 20.752 102.637 20.752L37.6953 20.752Q33.0078 20.752 30.7129 18.3838Q28.418 16.0156 28.418 11.5234L28.418-81.9336Q28.418-86.4258 30.7129-88.7939Q33.0078-91.1621 37.6953-91.1621L102.637-91.1621Q107.324-91.1621 109.619-88.7939Q111.914-86.4258 111.914-81.9336L111.914-54.4434L124.268-54.4434L124.268-82.959Q124.268-93.0176 119.067-98.2666Q113.867-103.516 103.857-103.516L36.4746-103.516Q26.416-103.516 21.2402-98.2666Q16.0645-93.0176 16.0645-82.959L16.0645 12.5488Q16.0645 22.6074 21.2402 27.8564Q26.416 33.1055 36.4746 33.1055ZM77.0508-29.541L141.26-29.541L150.488-30.0293L145.312-25.7324L135.84-16.748Q134.18-15.1855 134.18-12.9395Q134.18-10.8887 135.547-9.39941Q136.914-7.91016 139.014-7.91016Q140.137-7.91016 141.016-8.30078Q141.895-8.69141 142.627-9.47266L163.379-30.9082Q164.453-31.9824 164.893-33.0566Q165.332-34.1309 165.332-35.2539Q165.332-36.377 164.893-37.4756Q164.453-38.5742 163.379-39.6484L142.627-61.084Q141.895-61.8652 141.016-62.2803Q140.137-62.6953 139.014-62.6953Q136.914-62.6953 135.547-61.2305Q134.18-59.7656 134.18-57.666Q134.18-55.3711 135.84-53.8086L145.312-44.8242L150.488-40.5273L141.26-41.0156L77.0508-41.0156Q74.8047-41.0156 73.1445-39.3311Q71.4844-37.6465 71.4844-35.2539Q71.4844-32.9102 73.1445-31.2256Q74.8047-29.541 77.0508-29.541Z"/>
  </g>
  <g id="Medium-L" transform="matrix(1 0 0 1 1656.96 1556)">
   <path d="M35.791 32.666L103.076 32.666Q112.842 32.666 117.822 27.6367Q122.803 22.6074 122.803 12.793L122.803-16.3086L112.061-16.3086L112.061 12.1094Q112.061 16.8945 109.595 19.4092Q107.129 21.9238 102.197 21.9238L36.6699 21.9238Q31.7383 21.9238 29.2725 19.4092Q26.8066 16.8945 26.8066 12.1094L26.8066-82.5195Q26.8066-87.3047 29.2725-89.8193Q31.7383-92.334 36.6699-92.334L102.197-92.334Q107.129-92.334 109.595-89.8193Q112.061-87.3047 112.061-82.5195L112.061-54.0527L122.803-54.0527L122.803-83.2031Q122.803-92.9688 117.822-98.0225Q112.842-103.076 103.076-103.076L35.791-103.076Q26.0254-103.076 21.0449-98.0225Q16.0645-92.9688 16.0645-83.2031L16.0645 12.793Q16.0645 22.6074 21.0449 27.6367Q26.0254 32.666 35.791 32.666ZM75.0488-30.1758L140.332-30.1758L149.561-30.5664L144.336-25.9766L134.277-16.3574Q132.812-14.9902 132.812-12.9395Q132.812-11.084 134.058-9.74121Q135.303-8.39844 137.158-8.39844Q138.184-8.39844 138.965-8.76465Q139.746-9.13086 140.43-9.86328L161.426-31.4453Q162.354-32.4219 162.744-33.3496Q163.135-34.2773 163.135-35.2539Q163.135-36.2793 162.744-37.207Q162.354-38.1348 161.426-39.1113L140.43-60.7422Q139.746-61.4258 138.965-61.8164Q138.184-62.207 137.158-62.207Q135.303-62.207 134.058-60.8887Q132.812-59.5703 132.812-57.666Q132.812-55.5664 134.277-54.1504L144.336-44.6289L149.561-39.9414L140.332-40.3809L75.0488-40.3809Q72.998-40.3809 71.5332-38.8672Q70.0684-37.3535 70.0684-35.2539Q70.0684-33.2031 71.5332-31.6895Q72.998-30.1758 75.0488-30.1758Z"/>
  </g>
  <g id="Regular-L" transform="matrix(1 0 0 1 1361.66 1556)">
   <path d="M34.8633 32.0801L102.1 32.0801Q111.475 32.0801 116.187 27.3193Q120.898 22.5586 120.898 13.0859L120.898-16.8457L112.256-16.8457L112.256 12.8906Q112.256 18.0176 109.57 20.7275Q106.885 23.4375 101.611 23.4375L35.3516 23.4375Q30.0781 23.4375 27.3926 20.7275Q24.707 18.0176 24.707 12.8906L24.707-83.3008Q24.707-88.4277 27.3926-91.1377Q30.0781-93.8477 35.3516-93.8477L101.611-93.8477Q106.885-93.8477 109.57-91.1377Q112.256-88.4277 112.256-83.3008L112.256-53.6133L120.898-53.6133L120.898-83.4961Q120.898-92.9199 116.187-97.7051Q111.475-102.49 102.1-102.49L34.8633-102.49Q25.4883-102.49 20.7764-97.7051Q16.0645-92.9199 16.0645-83.4961L16.0645 13.0859Q16.0645 22.5586 20.7764 27.3193Q25.4883 32.0801 34.8633 32.0801ZM72.4121-31.0059L139.111-31.0059L148.389-31.2988L143.066-26.2207L132.275-15.918Q131.006-14.7461 131.006-12.9883Q131.006-11.3281 132.08-10.2051Q133.154-9.08203 134.766-9.08203Q135.645-9.08203 136.328-9.39941Q137.012-9.7168 137.598-10.3516L158.887-32.1777Q159.668-32.959 159.985-33.7158Q160.303-34.4727 160.303-35.2539Q160.303-36.084 159.985-36.8408Q159.668-37.5977 158.887-38.3789L137.598-60.2539Q137.012-60.8398 136.328-61.1816Q135.645-61.5234 134.766-61.5234Q133.154-61.5234 132.08-60.4248Q131.006-59.3262 131.006-57.6172Q131.006-55.8105 132.275-54.6387L143.066-44.3848L148.389-39.209L139.111-39.5508L72.4121-39.5508Q70.7031-39.5508 69.4824-38.2812Q68.2617-37.0117 68.2617-35.2539Q68.2617-33.5449 69.4824-32.2754Q70.7031-31.0059 72.4121-31.0059Z"/>
  </g>
  <g id="Light-L" transform="matrix(1 0 0 1 1066.32 1556)">
   <path d="M33.8867 31.7383L101.514 31.7383Q110.352 31.7383 114.844 27.2217Q119.336 22.7051 119.336 13.8184L119.336-17.0898L112.744-17.0898L112.744 13.623Q112.744 19.2383 109.814 22.1924Q106.885 25.1465 101.123 25.1465L34.2773 25.1465Q28.5156 25.1465 25.5859 22.1924Q22.6562 19.2383 22.6562 13.623L22.6562-83.9355Q22.6562-89.5996 25.5859-92.5537Q28.5156-95.5078 34.2773-95.5078L101.123-95.5078Q106.885-95.5078 109.814-92.5537Q112.744-89.5996 112.744-83.9355L112.744-53.3203L119.336-53.3203L119.336-84.1309Q119.336-93.0176 114.844-97.5586Q110.352-102.1 101.514-102.1L33.8867-102.1Q25.0488-102.1 20.5566-97.5586Q16.0645-93.0176 16.0645-84.1309L16.0645 13.8184Q16.0645 22.7051 20.5566 27.2217Q25.0488 31.7383 33.8867 31.7383ZM69.7754-31.9824L139.16-31.9824L148.193-32.2266L141.748-25.9277L130.127-14.6484Q129.15-13.7207 129.15-12.3535Q129.15-11.1328 129.98-10.2539Q130.811-9.375 132.08-9.375Q132.715-9.375 133.228-9.61914Q133.74-9.86328 134.229-10.3516L156.494-32.9102Q157.08-33.4961 157.324-34.082Q157.568-34.668 157.568-35.2539Q157.568-35.8887 157.324-36.4746Q157.08-37.0605 156.494-37.6465L134.229-60.2539Q133.74-60.7422 133.228-60.9863Q132.715-61.2305 132.08-61.2305Q130.811-61.2305 129.98-60.4004Q129.15-59.5703 129.15-58.252Q129.15-56.8848 130.127-55.957L141.748-44.6777L148.242-38.2812L139.16-38.5742L69.7754-38.5742Q68.457-38.5742 67.5293-37.5977Q66.6016-36.6211 66.6016-35.2539Q66.6016-33.9355 67.5293-32.959Q68.457-31.9824 69.7754-31.9824Z"/>
  </g>
  <g id="Thin-L" transform="matrix(1 0 0 1 771.437 1556)">
   <path d="M32.666 31.3477L100.732 31.3477Q108.887 31.3477 113.086 27.124Q117.285 22.9004 117.285 14.7461L117.285-17.4316L113.379-17.4316L113.379 14.5996Q113.379 20.8984 110.107 24.1455Q106.836 27.3926 100.537 27.3926L32.8613 27.3926Q26.5137 27.3926 23.2666 24.1455Q20.0195 20.8984 20.0195 14.5996L20.0195-84.8145Q20.0195-91.1621 23.2666-94.4092Q26.5137-97.6562 32.8613-97.6562L100.537-97.6562Q106.836-97.6562 110.107-94.4092Q113.379-91.1621 113.379-84.8145L113.379-52.9785L117.285-52.9785L117.285-84.9609Q117.285-93.1152 113.086-97.3389Q108.887-101.562 100.732-101.562L32.666-101.562Q24.5117-101.562 20.2881-97.3389Q16.0645-93.1152 16.0645-84.9609L16.0645 14.7461Q16.0645 22.9004 20.2881 27.124Q24.5117 31.3477 32.666 31.3477ZM66.3086-33.3496L139.258-33.3496L147.949-33.3984L139.99-25.5371L127.295-12.9883Q126.66-12.3047 126.66-11.5234Q126.66-10.8398 127.197-10.3027Q127.734-9.76562 128.467-9.76562Q128.857-9.76562 129.15-9.8877Q129.443-10.0098 129.736-10.3516L153.32-33.8867Q153.613-34.1797 153.76-34.5459Q153.906-34.9121 153.906-35.2539Q153.906-35.6445 153.76-35.9863Q153.613-36.3281 153.32-36.6699L129.736-60.3027Q129.443-60.5469 129.15-60.6934Q128.857-60.8398 128.467-60.8398Q127.734-60.8398 127.197-60.3516Q126.66-59.8633 126.66-59.082Q126.66-58.3008 127.295-57.666L139.99-45.0684L147.998-37.1094L139.258-37.207L66.3086-37.207Q65.4785-37.207 64.917-36.6455Q64.3555-36.084 64.3555-35.2539Q64.3555-34.4727 64.917-33.9111Q65.4785-33.3496 66.3086-33.3496Z"/>
  </g>
  <g id="Ultralight-L" transform="matrix(1 0 0 1 475.653 1556)">
   <path d="M31.9824 31.1035L100.342 31.1035Q108.105 31.1035 112.158 27.0508Q116.211 22.998 116.211 15.2344L116.211-17.5781L113.721-17.5781L113.721 15.0879Q113.721 21.7285 110.278 25.1465Q106.836 28.5645 100.195 28.5645L32.1289 28.5645Q25.4395 28.5645 22.0215 25.1465Q18.6035 21.7285 18.6035 15.0879L18.6035-85.2539Q18.6035-91.9922 22.0215-95.3857Q25.4395-98.7793 32.1289-98.7793L100.195-98.7793Q106.836-98.7793 110.278-95.3857Q113.721-91.9922 113.721-85.2539L113.721-52.7832L116.211-52.7832L116.211-85.4004Q116.211-93.2129 112.158-97.2656Q108.105-101.318 100.342-101.318L31.9824-101.318Q24.2188-101.318 20.1416-97.2656Q16.0645-93.2129 16.0645-85.4004L16.0645 15.2344Q16.0645 22.998 20.1416 27.0508Q24.2188 31.1035 31.9824 31.1035ZM64.502-33.9844L139.307-33.9844L147.803-34.0332L139.062-25.3418L125.879-12.1094Q125.391-11.6211 125.391-11.084Q125.391-10.6934 125.781-10.3271Q126.172-9.96094 126.66-9.96094Q126.904-9.96094 127.075-10.0342Q127.246-10.1074 127.49-10.3516L151.66-34.4238Q151.855-34.5703 151.953-34.79Q152.051-35.0098 152.051-35.2539Q152.051-35.498 151.953-35.7422Q151.855-35.9863 151.66-36.1328L127.49-60.3027Q127.246-60.498 127.075-60.5713Q126.904-60.6445 126.66-60.6445Q126.172-60.6445 125.781-60.3271Q125.391-60.0098 125.391-59.5215Q125.391-59.0332 125.879-58.5449L139.062-45.2637L147.9-36.4746L139.307-36.5723L64.502-36.5723Q63.916-36.5723 63.5742-36.1816Q63.2324-35.791 63.2324-35.2539Q63.2324-34.7168 63.5742-34.3506Q63.916-33.9844 64.502-33.9844Z"/>
  </g>
  <g id="Black-M" transform="matrix(1 0 0 1 2857.79 1126)">
   <path d="M31.5918 19.9219L84.3262 19.9219Q93.4082 19.9219 98.4375 14.8682Q103.467 9.81445 103.467 0.732422L103.467-18.2129L86.1328-18.2129L86.1328-1.9043Q86.1328 0.341797 85.1074 1.46484Q84.082 2.58789 81.6895 2.58789L34.2773 2.58789Q31.8359 2.58789 30.8105 1.46484Q29.7852 0.341797 29.7852-1.9043L29.7852-68.5059Q29.7852-70.752 30.8105-71.875Q31.8359-72.998 34.2773-72.998L81.6895-72.998Q84.082-72.998 85.1074-71.875Q86.1328-70.752 86.1328-68.5059L86.1328-51.8555L103.467-51.8555L103.467-71.1426Q103.467-80.2246 98.4375-85.2783Q93.4082-90.332 84.3262-90.332L31.5918-90.332Q22.5098-90.332 17.4805-85.2783Q12.4512-80.2246 12.4512-71.1426L12.4512 0.732422Q12.4512 9.81445 17.4805 14.8682Q22.5098 19.9219 31.5918 19.9219ZM69.4824-27.832L114.404-27.832L121.436-28.5156L117.334-26.709L112.695-22.3145Q110.596-20.3613 110.596-17.627Q110.596-15.2832 112.256-13.3301Q113.916-11.377 116.602-11.377Q119.043-11.377 120.898-13.2812L136.133-29.1504Q137.549-30.6641 138.159-32.2021Q138.77-33.7402 138.77-35.2539Q138.77-36.7676 138.159-38.3301Q137.549-39.8926 136.133-41.3574L120.898-57.2754Q119.043-59.1309 116.602-59.1309Q113.916-59.1309 112.256-57.2021Q110.596-55.2734 110.596-52.9297Q110.596-50.1465 112.695-48.1934L117.334-43.7988L121.436-41.9922L114.404-42.6758L69.4824-42.6758Q66.5527-42.6758 64.3555-40.5518Q62.1582-38.4277 62.1582-35.2539Q62.1582-32.1289 64.3555-29.9805Q66.5527-27.832 69.4824-27.832Z"/>
  </g>
  <g id="Heavy-M" transform="matrix(1 0 0 1 2562.62 1126)">
   <path d="M30.6641 19.2383L83.1543 19.2383Q91.8945 19.2383 96.6309 14.4775Q101.367 9.7168 101.367 0.976562L101.367-18.8477L86.2793-18.8477L86.2793-1.07422Q86.2793 1.51367 85.0342 2.83203Q83.7891 4.15039 81.0547 4.15039L32.8125 4.15039Q30.0293 4.15039 28.7842 2.83203Q27.5391 1.51367 27.5391-1.07422L27.5391-69.3359Q27.5391-71.9238 28.7842-73.2666Q30.0293-74.6094 32.8125-74.6094L81.0547-74.6094Q83.7891-74.6094 85.0342-73.2666Q86.2793-71.9238 86.2793-69.3359L86.2793-51.3184L101.367-51.3184L101.367-71.3867Q101.367-80.127 96.6309-84.9121Q91.8945-89.6973 83.1543-89.6973L30.6641-89.6973Q21.9238-89.6973 17.1875-84.9121Q12.4512-80.127 12.4512-71.3867L12.4512 0.976562Q12.4512 9.7168 17.1875 14.4775Q21.9238 19.2383 30.6641 19.2383ZM66.6992-28.6621L112.842-28.6621L119.922-29.248L115.967-27.0996L110.596-22.0215Q108.691-20.2637 108.691-17.8223Q108.691-15.6738 110.181-13.9404Q111.67-12.207 114.111-12.207Q116.309-12.207 118.018-13.916L133.398-29.9316Q134.668-31.25 135.181-32.5928Q135.693-33.9355 135.693-35.2539Q135.693-36.5723 135.181-37.9395Q134.668-39.3066 133.398-40.5762L118.018-56.6406Q116.309-58.3496 114.111-58.3496Q111.67-58.3496 110.181-56.6406Q108.691-54.9316 108.691-52.7832Q108.691-50.2441 110.596-48.5352L115.967-43.4082L119.922-41.2598L112.842-41.8457L66.6992-41.8457Q64.0625-41.8457 62.1338-39.9414Q60.2051-38.0371 60.2051-35.2539Q60.2051-32.5195 62.1338-30.5908Q64.0625-28.6621 66.6992-28.6621Z"/>
  </g>
  <g id="Bold-M" transform="matrix(1 0 0 1 2267.61 1126)">
   <path d="M29.5898 18.5059L81.8848 18.5059Q90.2344 18.5059 94.6289 14.0869Q99.0234 9.66797 99.0234 1.26953L99.0234-19.5312L86.4258-19.5312L86.4258-0.146484Q86.4258 2.83203 84.9609 4.37012Q83.4961 5.9082 80.3711 5.9082L31.1523 5.9082Q28.0273 5.9082 26.5381 4.37012Q25.0488 2.83203 25.0488-0.146484L25.0488-70.3125Q25.0488-73.291 26.5381-74.8291Q28.0273-76.3672 31.1523-76.3672L80.3711-76.3672Q83.4961-76.3672 84.9609-74.8291Q86.4258-73.291 86.4258-70.3125L86.4258-50.7812L99.0234-50.7812L99.0234-71.7285Q99.0234-80.0781 94.6289-84.5215Q90.2344-88.9648 81.8848-88.9648L29.5898-88.9648Q21.2891-88.9648 16.8701-84.5215Q12.4512-80.0781 12.4512-71.7285L12.4512 1.26953Q12.4512 9.66797 16.8701 14.0869Q21.2891 18.5059 29.5898 18.5059ZM63.5742-29.6387L111.084-29.6387L118.262-30.127L114.502-27.5391L108.252-21.6797Q106.592-20.166 106.592-18.0176Q106.592-16.0645 107.91-14.5752Q109.229-13.0859 111.328-13.0859Q113.232-13.0859 114.746-14.5996L130.322-30.8105Q131.396-31.9336 131.836-33.0322Q132.275-34.1309 132.275-35.2539Q132.275-36.377 131.836-37.5Q131.396-38.623 130.322-39.7461L114.746-55.957Q113.232-57.4707 111.328-57.4707Q109.229-57.4707 107.91-56.0059Q106.592-54.541 106.592-52.5879Q106.592-50.3906 108.252-48.877L114.502-42.9688L118.262-40.4297L111.084-40.918L63.5742-40.918Q61.3281-40.918 59.668-39.2822Q58.0078-37.6465 58.0078-35.2539Q58.0078-32.9102 59.668-31.2744Q61.3281-29.6387 63.5742-29.6387Z"/>
  </g>
  <g id="Semibold-M" transform="matrix(1 0 0 1 1972.08 1126)">
   <path d="M28.8574 17.9688L81.0059 17.9688Q89.0625 17.9688 93.2373 13.7695Q97.4121 9.57031 97.4121 1.46484L97.4121-20.0195L86.5234-20.0195L86.5234 0.537109Q86.5234 3.75977 84.8877 5.44434Q83.252 7.12891 79.8828 7.12891L29.9805 7.12891Q26.6113 7.12891 24.9756 5.44434Q23.3398 3.75977 23.3398 0.537109L23.3398-70.9473Q23.3398-74.1699 24.9756-75.8789Q26.6113-77.5879 29.9805-77.5879L79.8828-77.5879Q83.252-77.5879 84.8877-75.8789Q86.5234-74.1699 86.5234-70.9473L86.5234-50.3418L97.4121-50.3418L97.4121-71.9238Q97.4121-79.9805 93.2373-84.2285Q89.0625-88.4766 81.0059-88.4766L28.8574-88.4766Q20.8008-88.4766 16.626-84.2285Q12.4512-79.9805 12.4512-71.9238L12.4512 1.46484Q12.4512 9.57031 16.626 13.7695Q20.8008 17.9688 28.8574 17.9688ZM61.377-30.2734L109.863-30.2734L117.09-30.6641L113.428-27.832L106.592-21.4355Q105.127-20.1172 105.127-18.1152Q105.127-16.3574 106.299-15.0391Q107.471-13.7207 109.375-13.7207Q111.133-13.7207 112.5-15.0879L128.223-31.3965Q129.15-32.373 129.541-33.3252Q129.932-34.2773 129.932-35.2539Q129.932-36.2305 129.541-37.207Q129.15-38.1836 128.223-39.1113L112.5-55.4199Q111.133-56.8359 109.375-56.8359Q107.471-56.8359 106.299-55.542Q105.127-54.248 105.127-52.4414Q105.127-50.4395 106.592-49.1211L113.428-42.6758L117.09-39.8438L109.863-40.2832L61.377-40.2832Q59.4238-40.2832 57.959-38.7939Q56.4941-37.3047 56.4941-35.2539Q56.4941-33.2031 57.959-31.7383Q59.4238-30.2734 61.377-30.2734Z"/>
  </g>
  <g id="Medium-M" transform="matrix(1 0 0 1 1676.27 1126)">
   <path d="M28.3203 17.5781L80.3223 17.5781Q88.1836 17.5781 92.1875 13.5498Q96.1914 9.52148 96.1914 1.61133L96.1914-20.3613L86.6211-20.3613L86.6211 1.02539Q86.6211 4.44336 84.8389 6.25Q83.0566 8.05664 79.541 8.05664L29.1016 8.05664Q25.5371 8.05664 23.7793 6.25Q22.0215 4.44336 22.0215 1.02539L22.0215-71.4844Q22.0215-74.8535 23.7793-76.6846Q25.5371-78.5156 29.1016-78.5156L79.541-78.5156Q83.0566-78.5156 84.8389-76.6846Q86.6211-74.8535 86.6211-71.4844L86.6211-50.0488L96.1914-50.0488L96.1914-72.0703Q96.1914-79.9316 92.1875-84.0088Q88.1836-88.0859 80.3223-88.0859L28.3203-88.0859Q20.459-88.0859 16.4551-84.0088Q12.4512-79.9316 12.4512-72.0703L12.4512 1.61133Q12.4512 9.52148 16.4551 13.5498Q20.459 17.5781 28.3203 17.5781ZM59.7656-30.7617L108.936-30.7617L116.211-31.1035L112.646-28.0762L105.371-21.2402Q104.053-20.0195 104.053-18.2129Q104.053-16.5527 105.127-15.3564Q106.201-14.1602 107.91-14.1602Q109.521-14.1602 110.791-15.4297L126.611-31.8359Q127.441-32.7148 127.783-33.5449Q128.125-34.375 128.125-35.2539Q128.125-36.1328 127.783-36.9629Q127.441-37.793 126.611-38.6719L110.791-55.0781Q109.521-56.3477 107.91-56.3477Q106.201-56.3477 105.127-55.2002Q104.053-54.0527 104.053-52.3926Q104.053-50.4883 105.371-49.3164L112.646-42.4316L116.211-39.4043L108.936-39.7949L59.7656-39.7949Q58.0078-39.7949 56.6895-38.4521Q55.3711-37.1094 55.3711-35.2539Q55.3711-33.3984 56.6895-32.0801Q58.0078-30.7617 59.7656-30.7617Z"/>
  </g>
  <g id="Regular-M" transform="matrix(1 0 0 1 1380.73 1126)">
   <path d="M27.5879 17.0898L79.4434 17.0898Q87.0117 17.0898 90.7959 13.2812Q94.5801 9.47266 94.5801 1.80664L94.5801-20.8496L86.7188-20.8496L86.7188 1.66016Q86.7188 5.32227 84.79 7.27539Q82.8613 9.22852 79.0527 9.22852L27.9785 9.22852Q24.1699 9.22852 22.2412 7.27539Q20.3125 5.32227 20.3125 1.66016L20.3125-72.1191Q20.3125-75.7812 22.2412-77.7588Q24.1699-79.7363 27.9785-79.7363L79.0527-79.7363Q82.8613-79.7363 84.79-77.7588Q86.7188-75.7812 86.7188-72.1191L86.7188-49.6582L94.5801-49.6582L94.5801-72.2656Q94.5801-79.8828 90.7959-83.7402Q87.0117-87.5977 79.4434-87.5977L27.5879-87.5977Q20.0195-87.5977 16.2354-83.7402Q12.4512-79.8828 12.4512-72.2656L12.4512 1.80664Q12.4512 9.47266 16.2354 13.2812Q20.0195 17.0898 27.5879 17.0898ZM57.6172-31.3965L107.764-31.3965L115.088-31.6895L111.621-28.3691L103.76-20.9961Q102.588-19.9707 102.588-18.3594Q102.588-16.8457 103.54-15.8203Q104.492-14.7949 106.006-14.7949Q107.422-14.7949 108.594-15.918L124.512-32.4219Q125.244-33.1543 125.513-33.8379Q125.781-34.5215 125.781-35.2539Q125.781-35.9863 125.513-36.6699Q125.244-37.3535 124.512-38.0859L108.594-54.5898Q107.422-55.7617 106.006-55.7617Q104.492-55.7617 103.54-54.7607Q102.588-53.7598 102.588-52.2461Q102.588-50.5859 103.76-49.5605L111.621-42.1387L115.088-38.8184L107.764-39.1602L57.6172-39.1602Q56.1035-39.1602 54.9805-37.9883Q53.8574-36.8164 53.8574-35.2539Q53.8574-33.6914 54.9805-32.5439Q56.1035-31.3965 57.6172-31.3965Z"/>
  </g>
  <g id="Light-M" transform="matrix(1 0 0 1 1085.26 1126)">
   <path d="M26.709 16.7969L78.9062 16.7969Q86.0352 16.7969 89.5996 13.208Q93.1641 9.61914 93.1641 2.44141L93.1641-21.0449L87.1582-21.0449L87.1582 2.29492Q87.1582 6.44531 85.0098 8.61816Q82.8613 10.791 78.6133 10.791L27.002 10.791Q22.8027 10.791 20.6543 8.61816Q18.5059 6.44531 18.5059 2.29492L18.5059-72.7051Q18.5059-76.8555 20.6543-79.0283Q22.8027-81.2012 27.002-81.2012L78.6133-81.2012Q82.8613-81.2012 85.0098-79.0283Q87.1582-76.8555 87.1582-72.7051L87.1582-49.4141L93.1641-49.4141L93.1641-72.8516Q93.1641-79.9805 89.5996-83.6182Q86.0352-87.2559 78.9062-87.2559L26.709-87.2559Q19.6289-87.2559 16.04-83.6182Q12.4512-79.9805 12.4512-72.8516L12.4512 2.44141Q12.4512 9.61914 16.04 13.208Q19.6289 16.7969 26.709 16.7969ZM55.2734-32.2754L107.812-32.2754L114.941-32.5195L110.449-28.125L101.855-19.8242Q100.928-18.9941 100.928-17.8223Q100.928-16.6504 101.685-15.8447Q102.441-15.0391 103.564-15.0391Q104.639-15.0391 105.566-15.918L122.363-33.1055Q122.9-33.6426 123.096-34.1553Q123.291-34.668 123.291-35.2539Q123.291-35.8398 123.096-36.3525Q122.9-36.8652 122.363-37.4023L105.566-54.5898Q104.639-55.5176 103.564-55.5176Q102.441-55.5176 101.685-54.7363Q100.928-53.9551 100.928-52.7832Q100.928-51.5625 101.855-50.7324L110.449-42.4316L114.941-38.0371L107.812-38.2812L55.2734-38.2812Q54.0527-38.2812 53.1982-37.3779Q52.3438-36.4746 52.3438-35.2539Q52.3438-34.0332 53.1982-33.1543Q54.0527-32.2754 55.2734-32.2754Z"/>
  </g>
  <g id="Thin-M" transform="matrix(1 0 0 1 790.162 1126)">
   <path d="M25.5859 16.4551L78.2227 16.4551Q84.668 16.4551 88.0127 13.1104Q91.3574 9.76562 91.3574 3.27148L91.3574-21.3379L87.6953-21.3379L87.6953 3.17383Q87.6953 7.91016 85.2539 10.3516Q82.8125 12.793 78.0273 12.793L25.7812 12.793Q20.9473 12.793 18.5303 10.3516Q16.1133 7.91016 16.1133 3.17383L16.1133-73.4863Q16.1133-78.2227 18.5303-80.6885Q20.9473-83.1543 25.7812-83.1543L78.0273-83.1543Q82.8125-83.1543 85.2539-80.6885Q87.6953-78.2227 87.6953-73.4863L87.6953-49.0723L91.3574-49.0723L91.3574-73.584Q91.3574-80.0781 88.0127-83.4229Q84.668-86.7676 78.2227-86.7676L25.5859-86.7676Q19.0918-86.7676 15.7715-83.4229Q12.4512-80.0781 12.4512-73.584L12.4512 3.27148Q12.4512 9.76562 15.7715 13.1104Q19.0918 16.4551 25.5859 16.4551ZM52.1484-33.4473L107.91-33.4473L114.697-33.5938L108.838-27.7832L99.3164-18.3105Q98.6816-17.7734 98.6816-17.041Q98.6816-16.4062 99.1699-15.8936Q99.6582-15.3809 100.342-15.3809Q100.977-15.3809 101.514-15.918L119.482-33.9844Q119.775-34.2773 119.922-34.5947Q120.068-34.9121 120.068-35.2539Q120.068-35.5957 119.922-35.9131Q119.775-36.2305 119.482-36.5234L101.514-54.6387Q100.977-55.1758 100.342-55.1758Q99.6582-55.1758 99.1699-54.7119Q98.6816-54.248 98.6816-53.5645Q98.6816-52.7832 99.3164-52.2461L108.838-42.7734L114.746-36.9629L107.91-37.1094L52.1484-37.1094Q51.416-37.1094 50.8789-36.5479Q50.3418-35.9863 50.3418-35.2539Q50.3418-34.5215 50.8789-33.9844Q51.416-33.4473 52.1484-33.4473Z"/>
  </g>
  <g id="Ultralight-M" transform="matrix(1 0 0 1 494.306 1126)">
   <path d="M25 16.2598L77.832 16.2598Q84.0332 16.2598 87.207 13.0615Q90.3809 9.86328 90.3809 3.71094L90.3809-21.4844L87.9883-21.4844L87.9883 3.61328Q87.9883 8.69141 85.4004 11.2793Q82.8125 13.8672 77.7344 13.8672L25.0977 13.8672Q20.0195 13.8672 17.4316 11.2793Q14.8438 8.69141 14.8438 3.61328L14.8438-73.877Q14.8438-78.9551 17.4316-81.543Q20.0195-84.1309 25.0977-84.1309L77.7344-84.1309Q82.8125-84.1309 85.4004-81.543Q87.9883-78.9551 87.9883-73.877L87.9883-48.877L90.3809-48.877L90.3809-73.9746Q90.3809-80.1758 87.207-83.374Q84.0332-86.5723 77.832-86.5723L25-86.5723Q18.8477-86.5723 15.6494-83.374Q12.4512-80.1758 12.4512-73.9746L12.4512 3.71094Q12.4512 9.86328 15.6494 13.0615Q18.8477 16.2598 25 16.2598ZM50.5371-34.082L107.959-34.082L114.6-34.1309L108.057-27.6367L97.998-17.5293Q97.5586-17.0898 97.5586-16.6992Q97.5586-16.2598 97.9248-15.918Q98.291-15.5762 98.6816-15.5762Q99.1211-15.5762 99.4629-15.918L118.018-34.4238Q118.213-34.6191 118.286-34.8145Q118.359-35.0098 118.359-35.2539Q118.359-35.498 118.286-35.6934Q118.213-35.8887 118.018-36.084L99.4629-54.6387Q99.1211-54.9805 98.6816-54.9805Q98.291-54.9805 97.9248-54.6875Q97.5586-54.3945 97.5586-53.9062Q97.5586-53.4668 97.998-53.0273L108.057-42.9688L114.648-36.4258L107.959-36.4746L50.5371-36.4746Q50-36.4746 49.6582-36.1328Q49.3164-35.791 49.3164-35.2539Q49.3164-34.7656 49.6582-34.4238Q50-34.082 50.5371-34.082Z"/>
  </g>
  <g id="Black-S" transform="matrix(1 0 0 1 2873.76 696)">
   <path d="M25 8.1543L66.4062 8.1543Q73.584 8.1543 77.6123 4.12598Q81.6406 0.0976562 81.6406-7.08008L81.6406-21.7285L67.4805-21.7285L67.4805-9.32617Q67.4805-7.66602 66.748-6.83594Q66.0156-6.00586 64.1602-6.00586L27.2461-6.00586Q25.4395-6.00586 24.6826-6.83594Q23.9258-7.66602 23.9258-9.32617L23.9258-61.084Q23.9258-62.793 24.6826-63.5986Q25.4395-64.4043 27.2461-64.4043L64.1602-64.4043Q66.0156-64.4043 66.748-63.5986Q67.4805-62.793 67.4805-61.084L67.4805-48.3887L81.6406-48.3887L81.6406-63.3301Q81.6406-70.5078 77.6123-74.5361Q73.584-78.5645 66.4062-78.5645L25-78.5645Q17.8223-78.5645 13.7939-74.5361Q9.76562-70.5078 9.76562-63.3301L9.76562-7.08008Q9.76562 0.0976562 13.7939 4.12598Q17.8223 8.1543 25 8.1543ZM55.1758-29.248L90.1367-29.248L95.6055-29.7852L92.2852-28.418L88.8184-25.1465Q87.1582-23.584 87.1582-21.3379Q87.1582-19.4824 88.501-17.8955Q89.8438-16.3086 91.9922-16.3086Q93.9453-16.3086 95.459-17.8223L107.373-30.2734Q108.545-31.4941 109.033-32.7637Q109.521-34.0332 109.521-35.2539Q109.521-36.5234 109.033-37.7686Q108.545-39.0137 107.373-40.2344L95.459-52.6855Q93.9453-54.1992 91.9922-54.1992Q89.8438-54.1992 88.501-52.6123Q87.1582-51.0254 87.1582-49.1699Q87.1582-46.9238 88.8184-45.3613L92.2852-42.0898L95.6055-40.7227L90.1367-41.2598L55.1758-41.2598Q52.7832-41.2598 51.001-39.5508Q49.2188-37.8418 49.2188-35.2539Q49.2188-32.7148 51.001-30.9814Q52.7832-29.248 55.1758-29.248Z"/>
  </g>
  <g id="Heavy-S" transform="matrix(1 0 0 1 2578.19 696)">
   <path d="M24.3164 7.61719L65.4785 7.61719Q72.4121 7.61719 76.2207 3.80859Q80.0293 0 80.0293-6.93359L80.0293-22.2168L67.5293-22.2168L67.5293-8.69141Q67.5293-6.78711 66.6504-5.81055Q65.7715-4.83398 63.6719-4.83398L26.123-4.83398Q24.0723-4.83398 23.1689-5.81055Q22.2656-6.78711 22.2656-8.69141L22.2656-61.7188Q22.2656-63.6719 23.1689-64.624Q24.0723-65.5762 26.123-65.5762L63.6719-65.5762Q65.7715-65.5762 66.6504-64.624Q67.5293-63.6719 67.5293-61.7188L67.5293-47.998L80.0293-47.998L80.0293-63.4766Q80.0293-70.4102 76.2207-74.2432Q72.4121-78.0762 65.4785-78.0762L24.3164-78.0762Q17.3828-78.0762 13.5742-74.2432Q9.76562-70.4102 9.76562-63.4766L9.76562-6.93359Q9.76562 0 13.5742 3.80859Q17.3828 7.61719 24.3164 7.61719ZM53.0762-29.834L88.7695-29.834L94.3359-30.3223L91.2598-28.8086L87.2559-25Q85.7422-23.6328 85.7422-21.5332Q85.7422-19.8242 86.9629-18.3838Q88.1836-16.9434 90.1367-16.9434Q91.9434-16.9434 93.3594-18.3594L105.322-30.8594Q106.348-31.9336 106.787-33.0566Q107.227-34.1797 107.227-35.2539Q107.227-36.377 106.787-37.4756Q106.348-38.5742 105.322-39.6484L93.3594-52.1484Q91.9434-53.5645 90.1367-53.5645Q88.1836-53.5645 86.9629-52.124Q85.7422-50.6836 85.7422-48.9746Q85.7422-46.875 87.2559-45.5078L91.2598-41.6992L94.3359-40.1855L88.7695-40.6738L53.0762-40.6738Q50.9277-40.6738 49.3408-39.1113Q47.7539-37.5488 47.7539-35.2539Q47.7539-32.959 49.3408-31.3965Q50.9277-29.834 53.0762-29.834Z"/>
  </g>
  <g id="Bold-S" transform="matrix(1 0 0 1 2282.78 696)">
   <path d="M23.5352 7.03125L64.4531 7.03125Q71.1426 7.03125 74.6826 3.4668Q78.2227-0.0976562 78.2227-6.83594L78.2227-22.8027L67.627-22.8027L67.627-8.00781Q67.627-5.85938 66.5527-4.71191Q65.4785-3.56445 63.1836-3.56445L24.8535-3.56445Q22.5586-3.56445 21.46-4.71191Q20.3613-5.85938 20.3613-8.00781L20.3613-62.5Q20.3613-64.6484 21.46-65.7715Q22.5586-66.8945 24.8535-66.8945L63.1836-66.8945Q65.4785-66.8945 66.5527-65.7715Q67.627-64.6484 67.627-62.5L67.627-47.5098L78.2227-47.5098L78.2227-63.6719Q78.2227-70.3613 74.6826-73.9258Q71.1426-77.4902 64.4531-77.4902L23.5352-77.4902Q16.8457-77.4902 13.3057-73.9258Q9.76562-70.3613 9.76562-63.6719L9.76562-6.83594Q9.76562-0.0976562 13.3057 3.4668Q16.8457 7.03125 23.5352 7.03125ZM50.7324-30.5176L87.3047-30.5176L92.9199-30.957L90.1855-29.1992L85.5469-24.9023Q84.1797-23.6816 84.1797-21.8262Q84.1797-20.2148 85.2783-18.9697Q86.377-17.7246 88.1348-17.7246Q89.7461-17.7246 91.0156-18.9941L102.979-31.4941Q103.906-32.4707 104.272-33.3984Q104.639-34.3262 104.639-35.2539Q104.639-36.2305 104.272-37.1582Q103.906-38.0859 102.979-39.0137L91.0156-51.5625Q89.7461-52.832 88.1348-52.832Q86.377-52.832 85.2783-51.5869Q84.1797-50.3418 84.1797-48.7305Q84.1797-46.875 85.5469-45.6543L90.1855-41.3086L92.9688-39.5996L87.3047-39.9902L50.7324-39.9902Q48.877-39.9902 47.4854-38.623Q46.0938-37.2559 46.0938-35.2539Q46.0938-33.3008 47.4854-31.9092Q48.877-30.5176 50.7324-30.5176Z"/>
  </g>
  <g id="Semibold-S" transform="matrix(1 0 0 1 1986.94 696)">
   <path d="M22.9492 6.64062L63.7207 6.64062Q70.2148 6.64062 73.6084 3.24707Q77.002-0.146484 77.002-6.68945L77.002-23.1934L67.627-23.1934L67.627-7.4707Q67.627-5.17578 66.4307-3.93066Q65.2344-2.68555 62.793-2.68555L23.9258-2.68555Q21.4844-2.68555 20.2637-3.93066Q19.043-5.17578 19.043-7.4707L19.043-62.9883Q19.043-65.332 20.2637-66.5771Q21.4844-67.8223 23.9258-67.8223L62.793-67.8223Q65.2344-67.8223 66.4307-66.5771Q67.627-65.332 67.627-62.9883L67.627-47.168L77.002-47.168L77.002-63.7695Q77.002-70.2637 73.6084-73.6816Q70.2148-77.0996 63.7207-77.0996L22.9492-77.0996Q16.5039-77.0996 13.1348-73.6816Q9.76562-70.2637 9.76562-63.7695L9.76562-6.68945Q9.76562-0.146484 13.1348 3.24707Q16.5039 6.64062 22.9492 6.64062ZM49.1211-30.957L86.2305-30.957L91.9434-31.3477L89.4043-29.4922L84.3262-24.7559Q83.1055-23.6816 83.1055-21.9727Q83.1055-20.459 84.1064-19.3359Q85.1074-18.2129 86.7188-18.2129Q88.1836-18.2129 89.3555-19.3848L101.367-31.9336Q102.197-32.8125 102.539-33.6182Q102.881-34.4238 102.881-35.2539Q102.881-36.1328 102.539-36.9141Q102.197-37.6953 101.367-38.5742L89.3555-51.123Q88.1836-52.2949 86.7188-52.2949Q85.1074-52.2949 84.1064-51.1963Q83.1055-50.0977 83.1055-48.584Q83.1055-46.8262 84.3262-45.752L89.4043-41.0156L91.9922-39.1602L86.2305-39.5508L49.1211-39.5508Q47.4121-39.5508 46.167-38.3057Q44.9219-37.0605 44.9219-35.2539Q44.9219-33.4961 46.167-32.2266Q47.4121-30.957 49.1211-30.957Z"/>
  </g>
  <g id="Medium-S" transform="matrix(1 0 0 1 1690.92 696)">
   <path d="M22.5586 6.29883L63.1836 6.29883Q69.5312 6.29883 72.7783 3.02734Q76.0254-0.244141 76.0254-6.64062L76.0254-23.4863L67.6758-23.4863L67.6758-7.12891Q67.6758-4.63867 66.3818-3.32031Q65.0879-2.00195 62.5-2.00195L23.291-2.00195Q20.6543-2.00195 19.3604-3.32031Q18.0664-4.63867 18.0664-7.12891L18.0664-63.3789Q18.0664-65.8203 19.3604-67.1631Q20.6543-68.5059 23.291-68.5059L62.5-68.5059Q65.0879-68.5059 66.3818-67.1631Q67.6758-65.8203 67.6758-63.3789L67.6758-46.9238L76.0254-46.9238L76.0254-63.8672Q76.0254-70.2148 72.7783-73.5107Q69.5312-76.8066 63.1836-76.8066L22.5586-76.8066Q16.2109-76.8066 12.9883-73.5107Q9.76562-70.2148 9.76562-63.8672L9.76562-6.64062Q9.76562-0.244141 12.9883 3.02734Q16.2109 6.29883 22.5586 6.29883ZM47.9004-31.3477L85.4492-31.3477L91.2109-31.6895L88.8184-29.6875L83.3984-24.707Q82.2754-23.6816 82.2754-22.1191Q82.2754-20.6543 83.2275-19.6289Q84.1797-18.6035 85.6445-18.6035Q87.0117-18.6035 88.1348-19.7266L100.146-32.2754Q100.928-33.0566 101.221-33.7646Q101.514-34.4727 101.514-35.2539Q101.514-36.0352 101.221-36.7432Q100.928-37.4512 100.146-38.2324L88.1348-50.7812Q87.0117-51.9043 85.6445-51.9043Q84.1797-51.9043 83.2275-50.9033Q82.2754-49.9023 82.2754-48.4375Q82.2754-46.8262 83.3984-45.8008L88.8184-40.8203L91.2598-38.8184L85.4492-39.1602L47.9004-39.1602Q46.3379-39.1602 45.1904-38.0127Q44.043-36.8652 44.043-35.2539Q44.043-33.6426 45.1904-32.4951Q46.3379-31.3477 47.9004-31.3477Z"/>
  </g>
  <g id="Regular-S" transform="matrix(1 0 0 1 1395.08 696)">
   <path d="M22.0215 5.9082L62.5 5.9082Q68.6523 5.9082 71.7285 2.80762Q74.8047-0.292969 74.8047-6.54297L74.8047-23.877L67.7246-23.877L67.7246-6.64062Q67.7246-4.00391 66.3086-2.56348Q64.8926-1.12305 62.1582-1.12305L22.4121-1.12305Q19.6289-1.12305 18.2129-2.56348Q16.7969-4.00391 16.7969-6.64062L16.7969-63.8672Q16.7969-66.5039 18.2129-67.9443Q19.6289-69.3848 22.4121-69.3848L62.1582-69.3848Q64.8926-69.3848 66.3086-67.9443Q67.7246-66.5039 67.7246-63.8672L67.7246-46.6309L74.8047-46.6309L74.8047-63.9648Q74.8047-70.166 71.7285-73.291Q68.6523-76.416 62.5-76.416L22.0215-76.416Q15.8691-76.416 12.8174-73.291Q9.76562-70.166 9.76562-63.9648L9.76562-6.54297Q9.76562-0.292969 12.8174 2.80762Q15.8691 5.9082 22.0215 5.9082ZM46.2891-31.7871L84.4238-31.7871L90.2344-32.0801L88.0371-29.9805L82.2266-24.6094Q81.2012-23.7305 81.2012-22.2656Q81.2012-20.8984 82.0557-19.9951Q82.9102-19.0918 84.2285-19.0918Q85.498-19.0918 86.5234-20.1172L98.584-32.7148Q99.2676-33.3984 99.5117-33.9844Q99.7559-34.5703 99.7559-35.2539Q99.7559-35.9375 99.5117-36.5234Q99.2676-37.1094 98.584-37.793L86.5234-50.3906Q85.498-51.416 84.2285-51.416Q82.9102-51.416 82.0557-50.5371Q81.2012-49.6582 81.2012-48.291Q81.2012-46.7773 82.2266-45.8984L88.0371-40.5273L90.2832-38.4277L84.4238-38.7207L46.2891-38.7207Q44.9219-38.7207 43.9209-37.6953Q42.9199-36.6699 42.9199-35.2539Q42.9199-33.8379 43.9209-32.8125Q44.9219-31.7871 46.2891-31.7871Z"/>
  </g>
  <g id="Light-S" transform="matrix(1 0 0 1 1099.47 696)">
   <path d="M21.2891 5.66406L62.0117 5.66406Q67.7734 5.66406 70.6787 2.73438Q73.584-0.195312 73.584-5.95703L73.584-24.0723L68.1152-24.0723L68.1152-6.05469Q68.1152-3.02734 66.5039-1.3916Q64.8926 0.244141 61.7676 0.244141L21.582 0.244141Q18.4082 0.244141 16.7969-1.3916Q15.1855-3.02734 15.1855-6.05469L15.1855-64.4043Q15.1855-67.4316 16.7969-69.0674Q18.4082-70.7031 21.582-70.7031L61.7676-70.7031Q64.8926-70.7031 66.5039-69.0674Q68.1152-67.4316 68.1152-64.4043L68.1152-46.4355L73.584-46.4355L73.584-64.502Q73.584-70.2637 70.6787-73.1934Q67.7734-76.123 62.0117-76.123L21.2891-76.123Q15.5273-76.123 12.6465-73.1934Q9.76562-70.2637 9.76562-64.502L9.76562-5.95703Q9.76562-0.195312 12.6465 2.73438Q15.5273 5.66406 21.2891 5.66406ZM44.1895-32.5684L84.4727-32.5684L90.0879-32.8125L86.9629-29.7852L80.5176-23.6328Q79.7363-22.9004 79.7363-21.7773Q79.7363-20.752 80.3955-20.0439Q81.0547-19.3359 82.0801-19.3359Q83.0566-19.3359 83.8379-20.1172L96.6797-33.3008Q97.2168-33.8379 97.3877-34.2773Q97.5586-34.7168 97.5586-35.2539Q97.5586-35.791 97.3877-36.2305Q97.2168-36.6699 96.6797-37.207L83.8379-50.3906Q83.0566-51.2207 82.0801-51.2207Q81.0547-51.2207 80.3955-50.5371Q79.7363-49.8535 79.7363-48.7793Q79.7363-47.6074 80.5176-46.9238L86.9629-40.7715L90.1367-37.6953L84.4727-37.9395L44.1895-37.9395Q43.1152-37.9395 42.3584-37.1338Q41.6016-36.3281 41.6016-35.2539Q41.6016-34.1797 42.3584-33.374Q43.1152-32.5684 44.1895-32.5684Z"/>
  </g>
  <g id="Thin-S" transform="matrix(1 0 0 1 804.201 696)">
   <path d="M20.2637 5.32227L61.4258 5.32227Q66.6016 5.32227 69.2627 2.66113Q71.9238 0 71.9238-5.22461L71.9238-24.3164L68.6523-24.3164L68.6523-5.32227Q68.6523-1.70898 66.7725 0.170898Q64.8926 2.05078 61.2305 2.05078L20.459 2.05078Q16.7969 2.05078 14.9414 0.170898Q13.0859-1.70898 13.0859-5.32227L13.0859-65.0391Q13.0859-68.6523 14.9414-70.5322Q16.7969-72.4121 20.459-72.4121L61.2305-72.4121Q64.8926-72.4121 66.7725-70.5322Q68.6523-68.6523 68.6523-65.0391L68.6523-46.1426L71.9238-46.1426L71.9238-65.1367Q71.9238-70.3613 69.2627-73.0469Q66.6016-75.7324 61.4258-75.7324L20.2637-75.7324Q15.0879-75.7324 12.4268-73.0469Q9.76562-70.3613 9.76562-65.1367L9.76562-5.22461Q9.76562 0 12.4268 2.66113Q15.0879 5.32227 20.2637 5.32227ZM41.4551-33.5938L84.5215-33.5938L89.9414-33.7402L85.5957-29.4922L78.2715-22.2656Q77.7344-21.7773 77.7344-21.0938Q77.7344-20.5078 78.1738-20.0684Q78.6133-19.6289 79.248-19.6289Q79.7852-19.6289 80.3223-20.1172L94.1406-34.082Q94.4336-34.375 94.5557-34.6436Q94.6777-34.9121 94.6777-35.2539Q94.6777-35.5957 94.5557-35.8643Q94.4336-36.1328 94.1406-36.4258L80.3223-50.4395Q79.7852-50.9277 79.248-50.9277Q78.6133-50.9277 78.1738-50.5127Q77.7344-50.0977 77.7344-49.4629Q77.7344-48.7305 78.2715-48.2422L85.5957-41.0645L89.9902-36.7676L84.5215-36.9141L41.4551-36.9141Q40.7715-36.9141 40.3076-36.4258Q39.8438-35.9375 39.8438-35.2539Q39.8438-34.5703 40.3076-34.082Q40.7715-33.5938 41.4551-33.5938Z"/>
  </g>
  <g id="Ultralight-S" transform="matrix(1 0 0 1 508.222 696)">
   <path d="M19.7754 5.17578L61.084 5.17578Q66.0156 5.17578 68.5547 2.6123Q71.0938 0.0488281 71.0938-4.83398L71.0938-24.4141L68.8965-24.4141L68.8965-4.93164Q68.8965-1.07422 66.8945 0.952148Q64.8926 2.97852 60.9863 2.97852L19.873 2.97852Q15.9668 2.97852 13.9648 0.952148Q11.9629-1.07422 11.9629-4.93164L11.9629-65.4297Q11.9629-69.2871 13.9648-71.2891Q15.9668-73.291 19.873-73.291L60.9863-73.291Q64.8926-73.291 66.8945-71.2891Q68.8965-69.2871 68.8965-65.4297L68.8965-45.9961L71.0938-45.9961L71.0938-65.5273Q71.0938-70.4102 68.5547-72.9492Q66.0156-75.4883 61.084-75.4883L19.7754-75.4883Q14.8926-75.4883 12.3291-72.9492Q9.76562-70.4102 9.76562-65.5273L9.76562-4.83398Q9.76562 0.0488281 12.3291 2.6123Q14.8926 5.17578 19.7754 5.17578ZM40.0391-34.1309L84.5703-34.1309L89.8438-34.2285L84.8633-29.3457L77.1484-21.6309Q76.7578-21.2402 76.7578-20.752Q76.7578-20.4102 77.0752-20.0928Q77.3926-19.7754 77.7832-19.7754Q78.125-19.7754 78.4668-20.1172L92.8711-34.4727Q93.0664-34.668 93.1396-34.8389Q93.2129-35.0098 93.2129-35.2539Q93.2129-35.498 93.1396-35.6689Q93.0664-35.8398 92.8711-36.0352L78.4668-50.4395Q78.125-50.7812 77.7832-50.7812Q77.3926-50.7812 77.0752-50.4883Q76.7578-50.1953 76.7578-49.8047Q76.7578-49.3164 77.1484-48.9258L84.8633-41.2109L89.8926-36.2793L84.5703-36.377L40.0391-36.377Q39.5508-36.377 39.2334-36.0352Q38.916-35.6934 38.916-35.2539Q38.916-34.8145 39.2334-34.4727Q39.5508-34.1309 40.0391-34.1309Z"/>
  </g>
 </g>
</svg>
